<?xml version="1.0" encoding="utf-8"?>
<svg width="264px" height="280px" viewBox="0 0 264 280" version="1.1" xmlns="http://www.w3.org/2000/svg"
     xmlns:xlink="http://www.w3.org/1999/xlink">
    <defs>
        <linearGradient id="gradientBackground" x1="0%" y1="0%" x2="100%" y2="100%">
            <stop offset="0%" stop-color="#4e6cff" />
            <stop offset="100%" stop-color="#1a2238" />
        </linearGradient>
    </defs>
    <!-- Background Circle -->
    <circle cx="132" cy="140" r="120" fill="url(#gradientBackground)" />
    
    <!-- Head and Face -->
    <g transform="translate(32, 36)">
        <!-- Head -->
        <path d="M124,144.6V163h4c39.8,0,72,32.2,72,72v9H0v-9c0-39.8,32.2-72,72-72h4v-18.4
            c-17.2-8.2-29.6-24.9-31.7-44.7C38.5,99.1,34,94.1,34,88V74c0-5.9,4.3-10.9,10-11.8V56
            c0-30.9,25.1-56,56-56c30.9,0,56,25.1,56,56v6.2c5.7,1,10,5.9,10,11.8v14c0,6.1-4.5,11.1-10.3,11.9
            C153.6,119.7,141.2,136.4,124,144.6z" 
            fill="#f5debd" />
            
        <!-- Eyes -->
        <g transform="translate(76, 90)">
            <!-- Left Eye -->
            <ellipse cx="16" cy="16" rx="8" ry="8" fill="#ffffff" />
            <circle cx="16" cy="16" r="4" fill="#555555" />
            <circle cx="18" cy="14" r="2" fill="#ffffff" />
            
            <!-- Right Eye -->
            <ellipse cx="84" cy="16" rx="8" ry="8" fill="#ffffff" />
            <circle cx="84" cy="16" r="4" fill="#555555" />
            <circle cx="86" cy="14" r="2" fill="#ffffff" />
        </g>
        
        <!-- Mouth -->
        <path d="M106,140 C120,147 130,147 144,140" 
              stroke="#555555" 
              stroke-width="4" 
              fill="none" 
              stroke-linecap="round" />
    </g>
    
    <!-- Clothes -->
    <g transform="translate(0, 170)">
        <path d="M166,29.3c37,3,66,34,66,71.8v8.9H32v-8.9C32,63,61.6,31.8,99,29.2c0,0.4,0,0.7,0,1.1
            c0,11.9,15,21.5,33.5,21.5S166,42.2,166,30.3C166,30,166,29.6,166,29.3z" 
            fill="#4e6cff" />
    </g>
    
    <!-- Hair -->
    <g transform="translate(80, 45)">
        <path d="M0,40 C0,10 25,-5 50,5 C75,-5 100,10 100,40 L100,60 C100,80 80,90 50,90 C20,90 0,80 0,60 L0,40Z" 
              fill="#333333" />
    </g>
</svg>
